<svg width="13" height="12" viewBox="0 0 13 12" fill="none" xmlns="http://www.w3.org/2000/svg">
<path d="M9.5 0C8.21187 0 7.1075 1.135 6.5 2.86562C5.8925 1.135 4.78813 0 3.5 0C1.5375 0 0 2.63562 0 6C0 9.36438 1.5375 12 3.5 12C4.78813 12 5.8925 10.865 6.5 9.13437C7.1075 10.865 8.21187 12 9.5 12C11.4625 12 13 9.36438 13 6C13 2.63562 11.4625 0 9.5 0ZM5.1825 9.64937C4.71438 10.5075 4.10125 11 3.5 11C2.89875 11 2.28562 10.5075 1.8175 9.64937C1.51486 9.07547 1.29918 8.45979 1.1775 7.8225C1.48211 7.96018 1.81638 8.0193 2.14974 7.99448C2.4831 7.96965 2.80492 7.86167 3.08578 7.68039C3.36664 7.49911 3.59758 7.25033 3.7575 6.95678C3.91742 6.66323 4.00121 6.33428 4.00121 6C4.00121 5.66572 3.91742 5.33677 3.7575 5.04322C3.59758 4.74967 3.36664 4.50089 3.08578 4.31961C2.80492 4.13833 2.4831 4.03035 2.14974 4.00552C1.81638 3.9807 1.48211 4.03982 1.1775 4.1775C1.29918 3.54021 1.51486 2.92453 1.8175 2.35063C2.28562 1.4925 2.89875 1 3.5 1C4.10125 1 4.71438 1.4925 5.1825 2.35063C5.70937 3.31687 6 4.61312 6 6C6 7.38688 5.70937 8.68312 5.1825 9.64937ZM1 6C1 5.80222 1.05865 5.60888 1.16853 5.44443C1.27841 5.27998 1.43459 5.15181 1.61732 5.07612C1.80004 5.00043 2.00111 4.98063 2.19509 5.01921C2.38907 5.0578 2.56725 5.15304 2.70711 5.29289C2.84696 5.43275 2.9422 5.61093 2.98079 5.80491C3.01937 5.99889 2.99957 6.19996 2.92388 6.38268C2.84819 6.56541 2.72002 6.72159 2.55557 6.83147C2.39112 6.94135 2.19778 7 2 7C1.73478 7 1.48043 6.89464 1.29289 6.70711C1.10536 6.51957 1 6.26522 1 6ZM11.1825 9.64937C10.7144 10.5075 10.1012 11 9.5 11C8.89875 11 8.28563 10.5075 7.8175 9.64937C7.51486 9.07547 7.29918 8.45979 7.1775 7.8225C7.48211 7.96018 7.81638 8.0193 8.14974 7.99448C8.4831 7.96965 8.80492 7.86167 9.08578 7.68039C9.36664 7.49911 9.59758 7.25033 9.7575 6.95678C9.91742 6.66323 10.0012 6.33428 10.0012 6C10.0012 5.66572 9.91742 5.33677 9.7575 5.04322C9.59758 4.74967 9.36664 4.50089 9.08578 4.31961C8.80492 4.13833 8.4831 4.03035 8.14974 4.00552C7.81638 3.9807 7.48211 4.03982 7.1775 4.1775C7.29918 3.54021 7.51486 2.92453 7.8175 2.35063C8.28563 1.4925 8.89875 1 9.5 1C10.1012 1 10.7144 1.4925 11.1825 2.35063C11.7094 3.31687 12 4.61312 12 6C12 7.38688 11.7094 8.68312 11.1825 9.64937ZM7 6C7 5.80222 7.05865 5.60888 7.16853 5.44443C7.27841 5.27998 7.43459 5.15181 7.61732 5.07612C7.80004 5.00043 8.00111 4.98063 8.19509 5.01921C8.38907 5.0578 8.56725 5.15304 8.70711 5.29289C8.84696 5.43275 8.9422 5.61093 8.98079 5.80491C9.01937 5.99889 8.99957 6.19996 8.92388 6.38268C8.84819 6.56541 8.72002 6.72159 8.55557 6.83147C8.39112 6.94135 8.19778 7 8 7C7.73478 7 7.48043 6.89464 7.29289 6.70711C7.10536 6.51957 7 6.26522 7 6Z" fill="white"/>
</svg>
