<svg width="16" height="6" viewBox="0 0 16 6" fill="none" xmlns="http://www.w3.org/2000/svg">
<path d="M4.7748 0V5.9102H3.84392L1.09138 1.86939H1.04323V5.9102H0V0H0.946936L3.68342 4.04082H3.73959V0H4.7748Z" fill="#FF473B"/>
<path d="M7.53054 6C6.21447 6 5.41198 5.1102 5.41198 3.72245C5.41198 2.35102 6.23051 1.42041 7.47437 1.42041C8.54168 1.42041 9.46454 2.09796 9.46454 3.65714V3.98367H6.42311C6.43515 4.73878 6.8725 5.18367 7.53857 5.18367C7.98796 5.18367 8.29291 4.98776 8.42131 4.72653H9.42442C9.23984 5.49388 8.54168 6 7.53054 6ZM6.43114 3.27347H8.48551C8.47748 2.66939 8.08426 2.22857 7.49042 2.22857C6.8725 2.22857 6.46324 2.70612 6.43114 3.27347Z" fill="#FF473B"/>
<path d="M10.9363 5.9102L9.70047 1.47755H10.7437L11.5141 4.59592H11.5542L12.3326 1.47755H13.3678L14.1543 4.57959H14.1944L14.9568 1.47755H16L14.7642 5.9102H13.6969L12.8783 2.90612H12.8221L12.0036 5.9102H10.9363Z" fill="#FF473B"/>
</svg>
