<svg preserveAspectRatio="none" overflow="visible" style="display: block;" width="155.343" height="134.155" viewBox="0 0 155.343 134.155" fill="none" xmlns="http://www.w3.org/2000/svg">
<g id="&#235;&#176;&#176;&#234;&#178;&#189;">
<circle id="Ellipse 207" cx="82.7163" cy="63.9375" r="50" fill="url(#paint0_radial_0_24)"/>
<g id="Rectangle 10395">
<path d="M4.48214 43.9375L4.48214 67.4375L81.0933 60.2711L82.2447 55.07L4.48214 43.9375Z" fill="url(#paint1_linear_0_24)" fill-opacity="0.5" style="mix-blend-mode:multiply"/>
</g>
<path id="Rectangle 10391" d="M74.3125 0L105.898 3.20511L89.5 56.9375L78.6305 55.7206L74.3125 0Z" fill="url(#paint2_linear_0_24)" fill-opacity="0.7"/>
<path id="Rectangle 10392" d="M38.7163 13.1309L59.5486 1.93824L79.3069 48.0823L68.5002 57.5L38.7163 13.1309Z" fill="url(#paint3_linear_0_24)" fill-opacity="0.6"/>
<path id="Rectangle 10393" d="M21.6547 134.155L3.73587e-07 87.2642L74.0526 61.4839L78.4573 70.7837L21.6547 134.155Z" fill="url(#paint4_linear_0_24)" fill-opacity="0.7"/>
<path id="Rectangle 10394" d="M130.917 15.584L136.103 21.6468L94.3837 55.359L91.1429 51.5697L130.917 15.584Z" fill="url(#paint5_linear_0_24)" fill-opacity="0.6"/>
<g id="Rectangle 10387">
<path d="M94.5771 110.47L155.343 77.3996L98 62.9375L92.5002 70L94.5771 110.47Z" fill="url(#paint6_linear_0_24)" fill-opacity="0.7" style="mix-blend-mode:multiply"/>
</g>
<g id="Rectangle 10386">
<path d="M150.166 66.7285L141.184 35.4095L99.4449 51.8959L99.4449 60.9375L150.166 66.7285Z" fill="url(#paint7_linear_0_24)" fill-opacity="0.4" style="mix-blend-mode:multiply"/>
</g>
</g>
<defs>
<radialGradient id="paint0_radial_0_24" cx="0" cy="0" r="1" gradientUnits="userSpaceOnUse" gradientTransform="translate(82.7163 63.9375) rotate(90) scale(50)">
<stop stop-color="white"/>
<stop offset="1" stop-color="#FFE0DE"/>
</radialGradient>
<linearGradient id="paint1_linear_0_24" x1="7.21627" y1="56.9375" x2="78.7163" y2="56.9375" gradientUnits="userSpaceOnUse">
<stop stop-color="#FFCAC7" stop-opacity="0"/>
<stop offset="1" stop-color="#FFCAC7"/>
</linearGradient>
<linearGradient id="paint2_linear_0_24" x1="90.1053" y1="1.60256" x2="84.5528" y2="56.3216" gradientUnits="userSpaceOnUse">
<stop stop-color="#FFCAC7" stop-opacity="0"/>
<stop offset="1" stop-color="#FFCAC7"/>
</linearGradient>
<linearGradient id="paint3_linear_0_24" x1="49.1325" y1="7.53455" x2="72.7968" y2="51.58" gradientUnits="userSpaceOnUse">
<stop stop-color="white" stop-opacity="0"/>
<stop offset="1" stop-color="white"/>
</linearGradient>
<linearGradient id="paint4_linear_0_24" x1="6.80753" y1="102.684" x2="78.3072" y2="71.1205" gradientUnits="userSpaceOnUse">
<stop stop-color="white" stop-opacity="0"/>
<stop offset="1" stop-color="white"/>
</linearGradient>
<linearGradient id="paint5_linear_0_24" x1="133.51" y1="18.6154" x2="92.7633" y2="53.4644" gradientUnits="userSpaceOnUse">
<stop stop-color="white" stop-opacity="0"/>
<stop offset="1" stop-color="white"/>
</linearGradient>
<linearGradient id="paint6_linear_0_24" x1="153.492" y1="81.8693" x2="110.531" y2="64.0657" gradientUnits="userSpaceOnUse">
<stop stop-color="#FFCAC7" stop-opacity="0"/>
<stop offset="1" stop-color="#FFCAC7"/>
</linearGradient>
<linearGradient id="paint7_linear_0_24" x1="149.091" y1="53.817" x2="101.721" y2="57.7627" gradientUnits="userSpaceOnUse">
<stop stop-color="#FFCAC7" stop-opacity="0"/>
<stop offset="1" stop-color="#FFCAC7"/>
</linearGradient>
</defs>
</svg>
