<svg width="178" height="139" viewBox="0 0 178 139" fill="none" xmlns="http://www.w3.org/2000/svg">
<path d="M46.7606 33.7323C46.7606 33.7323 60.8779 14.1142 74.5246 8.29927C107.01 -5.54284 51.7017 109.796 44.4078 90.721C37.1138 71.6462 90.0537 35.3808 101.112 43.3875C112.171 51.3941 87.9361 90.7212 87.9361 90.7212C87.9361 90.7212 104.423 57.995 118.524 63.8752C124.17 66.2301 110.053 90.7212 110.053 90.7212C118.503 77.6407 122.627 73.7908 131.935 73.2948" stroke="white" stroke-width="6.59375" stroke-linecap="round" stroke-linejoin="round"/>
<circle cx="47.2921" cy="10.714" r="3.57143" fill="white"/>
<path d="M12.6406 124.391V125.594H1.125V124.391H6.15625V122.578H7.625V124.391H12.6406ZM13.3281 133.469V134.688H0.515625V133.469H13.3281ZM6.89062 126.422C9.73438 126.406 11.5469 127.453 11.5469 129.203C11.5469 130.938 9.73438 131.984 6.89062 131.984C4.01562 131.984 2.21875 130.938 2.21875 129.203C2.21875 127.453 4.01562 126.406 6.89062 126.422ZM6.89062 127.609C4.90625 127.609 3.70312 128.203 3.71875 129.203C3.70312 130.203 4.90625 130.797 6.89062 130.797C8.82812 130.797 10.0312 130.203 10.0312 129.203C10.0312 128.203 8.82812 127.609 6.89062 127.609ZM26.8562 133.391V134.609H14.0437V133.391H26.8562ZM25.2937 123.359V127.734H17.075V129.781H25.6219V130.969H15.6062V126.531H23.825V124.562H15.575V123.359H25.2937ZM40.3844 133.391V134.609H27.5719V133.391H40.3844ZM38.8219 123.359V127.734H30.6031V129.781H39.15V130.969H29.1344V126.531H37.3531V124.562H29.1031V123.359H38.8219ZM55.8625 122.297V127.734H57.7844V128.984H55.8625V136.328H54.3781V122.297H55.8625ZM48.675 123.766V124.984H46.5656V131.484C47.2375 131.461 47.9797 131.391 48.8 131.219L48.925 132.453C47.6594 132.703 46.6594 132.734 45.7219 132.734H45.0812V123.766H48.675ZM53.1906 123.766V124.984H50.9094V131.484C51.9328 131.477 52.7062 131.406 53.5656 131.188L53.6906 132.422C52.5656 132.703 51.6437 132.734 50.1437 132.734H49.4562V123.766H53.1906ZM69.1406 122.328V127.797H71.3906V129.047H69.1406V136.359H67.6719V122.328H69.1406ZM65.1875 123.594V128.734H60.2812V131.766C62.6875 131.758 64.4688 131.672 66.5156 131.297L66.6562 132.5C64.4688 132.906 62.5781 133 59.9531 133.016H58.8125V127.531H63.7188V124.797H58.7812V123.594H65.1875ZM87.4938 124.391V125.594H75.9781V124.391H81.0094V122.578H82.4781V124.391H87.4938ZM88.1813 133.469V134.688H75.3688V133.469H88.1813ZM81.7438 126.422C84.5875 126.406 86.4 127.453 86.4 129.203C86.4 130.938 84.5875 131.984 81.7438 131.984C78.8688 131.984 77.0719 130.938 77.0719 129.203C77.0719 127.453 78.8688 126.406 81.7438 126.422ZM81.7438 127.609C79.7594 127.609 78.5563 128.203 78.5719 129.203C78.5563 130.203 79.7594 130.797 81.7438 130.797C83.6813 130.797 84.8844 130.203 84.8844 129.203C84.8844 128.203 83.6813 127.609 81.7438 127.609ZM101.709 133.391V134.609H88.8969V133.391H101.709ZM100.147 123.359V127.734H91.9281V129.781H100.475V130.969H90.4594V126.531H98.6781V124.562H90.4281V123.359H100.147ZM113.753 126.422V127.609H104.113V122.828H105.581V126.422H113.753ZM115.222 129.375V130.562H102.409V129.375H115.222ZM113.847 134.781V136H104.003V131.891H105.488V134.781H113.847ZM132.637 127.828V129.047H130.466V136.312H128.981V122.328H130.466V127.828H132.637ZM121.559 123.688V131.562C123.512 131.562 125.552 131.398 127.778 130.938L127.95 132.188C125.559 132.672 123.341 132.797 121.247 132.797H120.091V123.688H121.559ZM137.65 123.328C139.869 123.312 141.447 124.688 141.462 126.656C141.447 128.625 139.869 130 137.65 130C135.447 130 133.822 128.625 133.837 126.656C133.822 124.688 135.447 123.312 137.65 123.328ZM137.65 124.609C136.291 124.609 135.291 125.422 135.306 126.656C135.291 127.891 136.291 128.703 137.65 128.703C139.009 128.703 140.009 127.891 140.009 126.656C140.009 125.422 139.009 124.609 137.65 124.609ZM144.666 122.328V136.359H143.181V122.328H144.666ZM133.166 132.109C135.712 132.109 139.244 132.078 142.306 131.641L142.416 132.719C139.244 133.328 135.853 133.344 133.353 133.344L133.166 132.109ZM155.191 124.422C155.191 126.391 156.456 128.141 158.581 128.828L157.769 129.984C156.23 129.43 155.097 128.352 154.488 126.953C153.878 128.555 152.659 129.797 150.972 130.406L150.175 129.219C152.409 128.453 153.706 126.594 153.722 124.484V123.109H155.191V124.422ZM161.894 122.328V130.594H160.409V126.391H157.456V125.172H160.409V122.328H161.894ZM157.206 130.984C160.144 130.984 161.941 131.953 161.941 133.656C161.941 135.344 160.144 136.312 157.206 136.297C154.269 136.312 152.456 135.344 152.472 133.656C152.456 131.953 154.269 130.984 157.206 130.984ZM157.206 132.141C155.159 132.141 153.941 132.688 153.941 133.656C153.941 134.594 155.159 135.125 157.206 135.125C159.253 135.125 160.472 134.594 160.472 133.656C160.472 132.688 159.253 132.141 157.206 132.141ZM168.641 124.906C168.641 126.688 169.875 128.312 172 128.984L171.297 130.141C169.703 129.633 168.539 128.578 167.922 127.25C167.312 128.781 166.086 129.992 164.406 130.578L163.641 129.391C165.828 128.672 167.141 126.859 167.156 124.922V124.531H164.078V123.328H171.656V124.531H168.641V124.906ZM174.75 122.328V125.797H176.781V127.016H174.75V130.734H173.266V122.328H174.75ZM170.234 131.078C173.125 131.078 174.875 132.031 174.875 133.672C174.875 135.328 173.125 136.312 170.234 136.297C167.312 136.312 165.531 135.328 165.531 133.672C165.531 132.031 167.312 131.078 170.234 131.078ZM170.234 132.25C168.203 132.25 167 132.766 167.016 133.672C167 134.609 168.203 135.125 170.234 135.125C172.25 135.125 173.422 134.609 173.422 133.672C173.422 132.766 172.25 132.25 170.234 132.25Z" fill="white"/>
</svg>
