<svg width="21" height="22" viewBox="0 0 21 22" fill="none" xmlns="http://www.w3.org/2000/svg">
<path d="M12.221 20.0034C12.0371 20.3065 11.7732 20.5581 11.4557 20.733C11.1382 20.9079 10.7783 21 10.4118 21C10.0454 21 9.68546 20.9079 9.36795 20.733C9.05044 20.5581 8.78655 20.3065 8.60269 20.0034M16.6864 7.00106C16.6864 5.40948 16.0253 3.88309 14.8486 2.75767C13.6719 1.63225 12.076 1 10.4119 1C8.74775 1 7.15181 1.63225 5.97511 2.75767C4.79841 3.88309 4.13735 5.40948 4.13735 7.00106C4.13735 14.0023 1.00009 16.0027 1.00009 16.0027H19.8236C19.8236 16.0027 16.6864 14.0023 16.6864 7.00106Z" stroke="#202020" stroke-width="2" stroke-linecap="round" stroke-linejoin="round"/>
</svg>
